<svg width="841" height="760" viewBox="0 0 841 760" fill="none" xmlns="http://www.w3.org/2000/svg">
<path d="M181.756 64.657C112.669 -2.03202 31.799 -4.39475 0 2.76001V760H841C783.26 547.853 513.135 675.64 586.943 490.948C660.75 306.255 347.446 470.981 462.424 362.162C577.403 253.343 442.924 19.1802 341 127.5C239.076 235.82 268.116 148.018 181.756 64.657Z" fill="url(#paint0_linear_4_18)"/>
<path d="M217.398 252.335C175.641 120.005 55.0673 98.1677 0 103.79V274.1C16.7229 266.845 67.9051 282.479 138.851 403.057C227.533 553.778 316.722 318.174 376.519 448.763C424.356 553.234 373.816 652.99 342.566 689.808L479.897 760L509.289 713.75C617.227 730.073 508.275 455.292 508.275 431.351C508.275 407.41 483.951 146.232 429.221 182.688C374.492 219.144 269.594 417.748 217.398 252.335Z" fill="url(#paint1_linear_4_18)"/>
<path d="M-1 331C50.7086 334.866 157.203 371.596 169.515 487.584C171.794 509.052 180.398 523.484 193.442 532.502C357.05 482.818 -19.3768 387.621 279.088 407.681C382.772 414.649 419.915 449.362 418.963 494.708C435.386 487.497 450.297 480.55 462.728 474.696C467.242 543 415.993 726.132 279.088 755H188.598C269.02 713.192 417.096 583.544 418.963 494.708C345.027 527.172 240.432 564.986 193.442 532.502C188.871 533.89 183.878 535.243 178.437 536.556C146.427 484.577 51.2012 385.514 -1 407.681V331Z" fill="url(#paint2_linear_4_18)"/>
<defs>
<linearGradient id="paint0_linear_4_18" x1="0.502089" y1="70.6471" x2="493.826" y2="742.285" gradientUnits="userSpaceOnUse">
<stop stop-color="#4B0374"/>
<stop offset="0.442708" stop-color="#7F0AC1" stop-opacity="0.557292"/>
<stop offset="1" stop-color="#A60AFF" stop-opacity="0"/>
</linearGradient>
<linearGradient id="paint1_linear_4_18" x1="0.377577" y1="157.548" x2="384.179" y2="666.459" gradientUnits="userSpaceOnUse">
<stop stop-color="#A60AFF" stop-opacity="0"/>
<stop offset="0.494792" stop-color="#7F0AC1" stop-opacity="0.557292"/>
<stop offset="1" stop-color="#4B0374"/>
</linearGradient>
<linearGradient id="paint2_linear_4_18" x1="217.398" y1="331" x2="217.398" y2="755" gradientUnits="userSpaceOnUse">
<stop stop-color="#F8AF02"/>
<stop offset="1" stop-color="#F8AF02" stop-opacity="0"/>
</linearGradient>
</defs>
</svg>
