<svg width="1498" height="963" viewBox="0 0 1498 963" fill="none" xmlns="http://www.w3.org/2000/svg">
<rect width="1498" height="963" fill="white"/>
<g clip-path="url(#clip0_23_25)">
<path d="M1341.31 225.57C1400.87 154.845 1470.59 152.339 1498 159.927V963H773C822.776 738.013 1055.64 873.534 992.015 677.663C928.388 481.791 1121.39 574.047 1022.27 458.641C923.153 343.236 1110.61 219.218 1198.48 334.095C1286.34 448.969 1266.87 313.977 1341.31 225.57Z" fill="url(#paint0_linear_23_25)"/>
<g clip-path="url(#clip1_23_25)">
<path d="M1355.75 446.819C1385.18 333.555 1470.18 314.864 1509 319.676V465.447C1497.21 459.238 1461.13 472.619 1411.12 575.824C1348.6 704.828 1285.73 503.171 1243.57 614.945C1209.85 704.363 1274.59 927.871 1296.62 959.385L1130.69 984.36L1186.14 909.435C1118.97 889.73 1150.69 620.533 1150.69 600.04C1150.69 579.549 1167.84 356.003 1206.42 387.206C1245 418.409 1318.95 588.398 1355.75 446.819Z" fill="url(#paint1_linear_23_25)"/>
<g clip-path="url(#clip2_23_25)">
<path d="M1495.03 504.122C1462.51 507.114 1405.47 528.205 1371.35 585.577C1363.28 586.053 1354.29 586.699 1344.32 587.523C1287.89 592.19 1249.57 608.296 1225.23 631.498C1213.63 620.297 1201.68 610.355 1189.6 603.359C1153.45 658.376 1126.46 933.884 1247.47 965.283H1327.45C1242.42 910.891 1132.58 719.804 1225.23 631.498C1265.08 669.982 1300.76 723.322 1322.77 723.046C1326.83 724.64 1331.37 726.19 1336.43 727.694C1364.73 671.158 1448.89 563.414 1495.03 587.523V504.122Z" fill="url(#paint2_linear_23_25)"/>
</g>
</g>
</g>
<defs>
<linearGradient id="paint0_linear_23_25" x1="1497.57" y1="231.923" x2="839.868" y2="908.876" gradientUnits="userSpaceOnUse">
<stop stop-color="#4B0374"/>
<stop offset="0.442708" stop-color="#7F0AC1" stop-opacity="0.557292"/>
<stop offset="1" stop-color="#A60AFF" stop-opacity="0"/>
</linearGradient>
<linearGradient id="paint1_linear_23_25" x1="1508.73" y1="365.688" x2="1168.39" y2="737.376" gradientUnits="userSpaceOnUse">
<stop stop-color="#A60AFF" stop-opacity="0"/>
<stop offset="0.494792" stop-color="#7F0AC1" stop-opacity="0.557292"/>
<stop offset="1" stop-color="#4B0374"/>
</linearGradient>
<linearGradient id="paint2_linear_23_25" x1="1452.94" y1="564.427" x2="1130.61" y2="1038.69" gradientUnits="userSpaceOnUse">
<stop offset="0.0283082" stop-color="#F8AF02"/>
<stop offset="1" stop-color="#F8AF02" stop-opacity="0"/>
</linearGradient>
<clipPath id="clip0_23_25">
<rect width="725" height="806" fill="white" transform="translate(773 157)"/>
</clipPath>
<clipPath id="clip1_23_25">
<rect width="379" height="666" fill="white" transform="translate(1130 319)"/>
</clipPath>
<clipPath id="clip2_23_25">
<rect width="334.572" height="461.161" fill="white" transform="translate(1159.01 504.122)"/>
</clipPath>
</defs>
</svg>
