<svg width="1175" height="799" viewBox="0 0 1175 799" fill="none" xmlns="http://www.w3.org/2000/svg">
<path d="M600.724 15.7661C618.493 14.6821 635.305 14.8091 650 15.7661H600.724C505.875 21.5529 383.79 61.8507 411.099 194.622C451.631 391.675 245.633 335.003 245.633 427.55C245.633 501.588 92.7242 605.366 16.2696 648V515.938C5.93786 472.437 14.1714 375.765 129.759 337.082C274.244 288.729 290.525 216.213 268.522 164.986C227.585 69.681 324.313 49.0415 426.358 15.7661H600.724Z" fill="url(#paint0_linear_2_10)"/>
<path d="M611.383 361.814C611.383 311.403 486.162 117.855 679.727 117.855C873.291 117.855 1181.59 199.381 1174.89 82.3571C1168.19 -34.666 902.428 7.33334 836.023 7.33334H0V798.96C23.2145 801.477 75.7139 683.496 99.062 624.192C109.068 571.177 261.163 596.337 322.702 499.293C384.24 402.248 611.383 510.76 611.383 361.814Z" fill="url(#paint1_linear_2_10)"/>
<defs>
<linearGradient id="paint0_linear_2_10" x1="13.3803" y1="73.8416" x2="434.343" y2="595.038" gradientUnits="userSpaceOnUse">
<stop stop-color="#4B0374"/>
<stop offset="0.442708" stop-color="#7F0AC1" stop-opacity="0.557292"/>
<stop offset="1" stop-color="#A60AFF" stop-opacity="0"/>
</linearGradient>
<linearGradient id="paint1_linear_2_10" x1="661.914" y1="1.0431" x2="255.955" y2="930.521" gradientUnits="userSpaceOnUse">
<stop offset="0.12282" stop-color="#4B0374"/>
<stop offset="0.538176" stop-color="#7F0AC1" stop-opacity="0.557292"/>
<stop offset="1" stop-color="#A60AFF" stop-opacity="0"/>
</linearGradient>
</defs>
</svg>
